<svg width="500" height="120" viewBox="0 0 500 120" fill="none" xmlns="http://www.w3.org/2000/svg">
 <g id="Scantient-Logo-Icon">
 <path d="M45 20C30 20 20 32 20 48V72C20 88 30 100 45 100H55C70 100 80 88 80 72V48C80 32 70 20 55 20H45Z" fill="#0066FF"/>
 <path d="M40 40H60V50H45C42.2 50 40 52.2 40 55V65C40 67.8 42.2 70 45 70H60V80H40C34.5 80 30 75.5 30 70V50C30 44.5 34.5 40 40 40Z" fill="white"/>
 <path d="M60 40C65.5 40 70 44.5 70 50V70C70 75.5 65.5 80 60 80H55V70H60C62.8 70 65 67.8 65 65V55C65 52.2 62.8 50 60 50H55V40H60Z" fill="white" fill-opacity="0.8"/>
 <circle cx="50" cy="60" r="4" fill="#00C2FF" />
 </g>

 <text x="100" y="78" font-family="Inter, system-ui, sans-serif" font-weight="800" font-size="52" fill="#1E293B" letter-spacing="-2">Scantient</text>
 
 <text x="102" y="98" font-family="Inter, system-ui, sans-serif" font-weight="600" font-size="14" fill="#64748B" letter-spacing="4" text-transform="uppercase">Security Intelligence</text>
</svg>
