<svg xmlns="http://www.w3.org/2000/svg" viewBox="0 0 96 96"><defs><linearGradient id="a" x1="0.672" x2="0.46" y1="0.09" y2="1" gradientUnits="objectBoundingBox"><stop offset="0" stop-color="#114a8b"/><stop offset="1" stop-color="#0669bc"/></linearGradient><linearGradient id="b" x1="0.44" x2="0.62" y1="0.17" y2="0.96" gradientUnits="objectBoundingBox"><stop offset="0" stop-opacity="0.3"/><stop offset="0.07" stop-opacity="0.2"/><stop offset="0.32" stop-opacity="0.1"/><stop offset="0.62" stop-opacity="0.05"/><stop offset="1" stop-opacity="0"/></linearGradient><linearGradient id="c" x1="0.44" x2="0.6" y1="0.1" y2="0.97" gradientUnits="objectBoundingBox"><stop offset="0" stop-color="#3ccbf4"/><stop offset="1" stop-color="#2892df"/></linearGradient></defs><path fill="url(#a)" d="M33.338 6.544h26.038L33.973 83.43a4.15 4.15 0 0 1-3.933 2.838H8.149a4.145 4.145 0 0 1-3.928-5.459L29.405 9.382a4.15 4.15 0 0 1 3.933-2.838z"/><path fill="#0078d4" d="M71.175 60.261H29.972a1.91 1.91 0 0 0-1.302 3.309l26.762 24.965a4.171 4.171 0 0 0 2.839 1.11h23.604z"/><path fill="url(#b)" d="M33.338 6.544a4.12 4.12 0 0 0-3.945 2.88L4.252 80.783a4.14 4.14 0 0 0 3.908 5.485h20.787a4.44 4.44 0 0 0 3.4-2.883l5.01-14.765 17.91 16.703a4.24 4.24 0 0 0 2.666.962h23.26L71.232 60.26H41.08L59.47 6.544z"/><path fill="url(#c)" d="M66.595 9.382a4.145 4.145 0 0 0-3.928-2.838H33.648a4.145 4.145 0 0 1 3.928 2.838l25.184 71.427a4.145 4.145 0 0 1-3.928 5.459h29.019a4.145 4.145 0 0 0 3.928-5.459z"/></svg>
