<svg fill="none" role="img" viewBox="0 0 24 24" xmlns="http://www.w3.org/2000/svg"><title>Microsoft Teams</title><path d="M20.625 7.875a2.625 2.625 0 1 0 0-5.25 2.625 2.625 0 0 0 0 5.25z" fill="#5059C9"/><path d="M20.625 9h-4.5a.75.75 0 0 0-.75.75v5.625A4.125 4.125 0 0 1 11.25 19.5h-.107a6.375 6.375 0 0 0 5.232 2.25h4.25A3.375 3.375 0 0 0 24 18.375v-6a3.375 3.375 0 0 0-3.375-3.375z" fill="#5059C9"/><path d="M14.25 6.375a3.375 3.375 0 1 0 0-6.75 3.375 3.375 0 0 0 0 6.75z" fill="#7B83EB"/><path d="M18 9H10.5A3.75 3.75 0 0 0 6.75 12.75v5.625a3.75 3.75 0 0 0 7.5 0V12.75A3.75 3.75 0 0 0 18 9z" fill="#7B83EB"/><path d="M11.25 9H4.125A4.125 4.125 0 0 0 0 13.125v5.25A4.125 4.125 0 0 0 4.125 22.5h7.125A4.125 4.125 0 0 0 15.375 18.375v-5.25A4.125 4.125 0 0 0 11.25 9z" fill="#4B53BC"/><path d="M7.875 12.375v6.75M4.5 15.75h6.75" stroke="#fff" stroke-width="1.5" stroke-linecap="round"/></svg>
